# xmcd
#
# Track frame offsets:
#	150
#	15135
#	39127
#	57108
#	96262
#	119611
#	154192
#
# Disc length: 2418 seconds
#
# Revision: 1
# Processed by: cddbd v1.5.2PL0 Copyright (c) Steve Scherf et al.
# Submitted via: audiograbber 1.83.01
#
DISCID=48097007
DTITLE=Grateful Dead - 71-11-06 Harding Theatre, San Francisco CA
DYEAR=1900
DGENRE=
TTITLE0=BIODTL
TTITLE1=Deal
TTITLE2=Mexicali Blues
TTITLE3=Sing Me Back Home
TTITLE4=One More Saturday Night
TTITLE5=Ramble On Rose
TTITLE6=Me and Bobby McGee
EXTD=
EXTT0=
EXTT1=
EXTT2=
EXTT3=
EXTT4=
EXTT5=
EXTT6=
PLAYORDER=
